 http://old.rapidimg.org/images/Lw7KQ.jpg


The Dark Knight Rises 2012 BRRip XviD - [RiSES]

IMDB: http://www.imdb.com/title/tt1345836

Genres: Action  Crime  Drama

Source Used :-

 Video - 720p Sparks - Thanks!
 Audio - 720p Sparks - Thanks!

 Video
 ID : 0
 Format : MPEG-4 Visual
 Format profile : Advanced Simple@L5
 Format settings, BVOP : 2
 Format settings, QPel : Yes
 Format settings, GMC : No warppoints
 Format settings, Matrix : Default (H.263)
 Codec ID : XVID
 Codec ID/Hint : XviD
 Duration : 2h 44mn
 Bit rate : 500 Kbps
 Width : 640 pixels
 Height : 272 pixels
 Display aspect ratio : 2.35:1
 Frame rate : 23.976 fps
 Color space : YUV
 Chroma subsampling : 4:2:0
 Bit depth : 8 bits
 Scan type : Progressive
 Compression mode : Lossy
 Bits/(Pixel*Frame) : 0.120
 Stream size : 588 MiB (85%)
 Writing library : XviD 1.2.1 (UTC 2008-12-04)

 Audio
 ID : 1
 Format : MPEG Audio
 Format version : Version 1
 Format profile : Layer 3
 Mode : Joint stereo
 Mode extension : MS Stereo
 Codec ID : 55
 Codec ID/Hint : MP3
 Duration : 2h 44mn
 Bit rate mode : Constant
 Bit rate : 80.0 Kbps
 Channel(s) : 2 channels
 Sampling rate : 32.0 KHz
 Compression mode : Lossy
 Stream size : 94.2 MiB (14%)
 Alignment : Aligned on interleaves
 Interleave, duration : 167 ms (4.00 video frames)
 Interleave, preload duration : 216 ms
 Title : [1] English
 Writing library : LAME3.99r
 Encoding settings : -m j -V 4 -q 2 -lowpass 13.5 -b 80

 IMDB: http://www.imdb.com/title/tt1345836/


 Eight years after the events of The Dark Knight, the terrorist leader Bane arrives in Gotham City, pushing it and its police force to their limits, forcing its former hero Batman to resurface after taking the fall for Harvey Dent's crimes.

 
http://img341.imageshack.us/img341/3269/vlcsnap2012111509h54m15.png 
http://img577.imageshack.us/img577/7530/vlcsnap2012111509h52m13.png 
http://img708.imageshack.us/img708/3493/vlcsnap2012111509h58m31.png



